<?xml version="1.0" encoding="UTF-8"?>
<svg version="1.1" xmlns="http://www.w3.org/2000/svg" width="4668" height="3242">
<path d="M0 0 C363.33 0 726.66 0 1101 0 C1101 76.89 1101 153.78 1101 233 C737.67 233 374.34 233 0 233 C0 156.11 0 79.22 0 0 Z " fill="#AD2D2B" transform="translate(1174,1876)"/>
<path d="M0 0 C242.22 0 484.44 0 734 0 C734 76.89 734 153.78 734 233 C491.78 233 249.56 233 0 233 C0 156.11 0 79.22 0 0 Z " fill="#AD2D2B" transform="translate(1541,1505)"/>
<path d="M0 0 C121.44 0 242.88 0 368 0 C368 76.89 368 153.78 368 233 C246.56 233 125.12 233 0 233 C0 156.11 0 79.22 0 0 Z " fill="#AD2D2B" transform="translate(1907,1134)"/>
<path d="M0 0 C20.274375 -0.061875 40.54875 -0.12375 61.4375 -0.1875 C67.80861084 -0.21481201 74.17972168 -0.24212402 80.74389648 -0.27026367 C88.60168457 -0.28381348 88.60168457 -0.28381348 92.29530334 -0.28633118 C94.84207233 -0.29089895 97.38883536 -0.30136802 99.93556213 -0.31672668 C126.0624967 -0.46623776 153.83862664 0.54646518 173.81640625 19.7890625 C174.53699219 20.51867188 175.25757812 21.24828125 176 22 C176.58652344 22.56460937 177.17304688 23.12921875 177.77734375 23.7109375 C187.79639886 34.16338685 188.46131668 47.82898334 188.2734375 61.421875 C187.81082674 75.09866426 181.80443584 87.10135597 171.84375 96.49609375 C168.76804627 99.00487751 165.45290624 101.05381648 162 103 C162.82242188 103.4125 163.64484375 103.825 164.4921875 104.25 C180.57999712 112.57256202 191.14023897 122.39782722 197 140 C201.22844581 155.70250969 199.40774756 172.01033354 191.65625 186.31640625 C182.20783296 201.62551593 165.94024499 208.7358075 149.09375 213.140625 C138.86440412 215.41512933 128.87089151 216.29033662 118.40698242 216.22705078 C116.44201923 216.22741239 116.44201923 216.22741239 114.43735981 216.2277813 C110.93661891 216.22822749 107.43601849 216.21674971 103.93531036 216.20256042 C100.63416457 216.19105644 97.33302376 216.19062805 94.03186035 216.18920898 C84.41705541 216.17877022 74.80227586 216.15084771 65.1875 216.125 C32.9196875 216.063125 32.9196875 216.063125 0 216 C0 144.72 0 73.44 0 0 Z M50 38 C50 54.5 50 71 50 88 C57.46166043 88.06321457 64.92232978 88.1232827 72.38402557 88.15525055 C75.86005822 88.17097863 79.33586517 88.19193313 82.81176758 88.22631836 C86.81593798 88.26567374 90.81987588 88.27980412 94.82421875 88.29296875 C96.65940315 88.31619453 96.65940315 88.31619453 98.53166199 88.33988953 C110.39107846 88.3421664 122.65825892 87.13466633 131.5234375 78.51953125 C136.65123098 72.75446863 137.46467224 67.48649258 137.30859375 60.00390625 C136.69263579 54.00806233 134.23058533 49.89860649 129.9375 45.75 C122.33349533 39.73562562 112.37783304 37.86614199 102.90283203 37.88647461 C101.72206085 37.88655014 100.54128967 37.88662567 99.32473755 37.88670349 C97.43535965 37.89444542 97.43535965 37.89444542 95.5078125 37.90234375 C93.55619705 37.90446617 93.55619705 37.90446617 91.56515503 37.90663147 C88.12270147 37.91043156 84.68029075 37.92024017 81.237854 37.93133545 C77.71847117 37.94160375 74.19908114 37.94619562 70.6796875 37.95117188 C63.78642061 37.96133294 56.89327107 37.98091094 50 38 Z M50 125 C50 142.49 50 159.98 50 178 C61.74411942 178.08748414 61.74411942 178.08748414 73.48828125 178.14648438 C78.28932844 178.16430924 83.09020147 178.18522692 87.89111328 178.22631836 C91.7685421 178.25929198 95.64578375 178.27693161 99.52334213 178.28463173 C100.99107681 178.29010799 102.45880309 178.30079806 103.92645645 178.31719017 C117.07343829 178.45797692 131.55161124 178.23120653 141.51953125 168.51953125 C146.11728412 163.36527804 147.8893538 157.86006413 148 151 C147.12151447 142.77291331 143.66086602 136.62655772 137.23828125 131.38671875 C125.33210045 124.01028911 110.03130221 124.84800787 96.58203125 124.90234375 C95.23011834 124.90421402 93.87820473 124.90563504 92.52629089 124.90663147 C89.00664321 124.91040873 85.48703828 124.92019674 81.96740723 124.93133545 C78.36043893 124.94165392 74.75346336 124.94620642 71.14648438 124.95117188 C64.09761878 124.96129083 57.04886982 124.98087434 50 125 Z " fill="#000000" transform="translate(2388,1888)"/>
<path d="M0 0 C20.274375 -0.061875 40.54875 -0.12375 61.4375 -0.1875 C67.80861084 -0.21481201 74.17972168 -0.24212402 80.74389648 -0.27026367 C88.60168457 -0.28381348 88.60168457 -0.28381348 92.29530334 -0.28633118 C94.84207233 -0.29089895 97.38883536 -0.30136802 99.93556213 -0.31672668 C126.0624967 -0.46623776 153.83862664 0.54646518 173.81640625 19.7890625 C174.53699219 20.51867188 175.25757812 21.24828125 176 22 C176.58652344 22.56460937 177.17304688 23.12921875 177.77734375 23.7109375 C187.79639886 34.16338685 188.46131668 47.82898334 188.2734375 61.421875 C187.81082674 75.09866426 181.80443584 87.10135597 171.84375 96.49609375 C168.76804627 99.00487751 165.45290624 101.05381648 162 103 C162.82242188 103.4125 163.64484375 103.825 164.4921875 104.25 C180.57999712 112.57256202 191.14023897 122.39782722 197 140 C201.22844581 155.70250969 199.40774756 172.01033354 191.65625 186.31640625 C182.20783296 201.62551593 165.94024499 208.7358075 149.09375 213.140625 C138.86440412 215.41512933 128.87089151 216.29033662 118.40698242 216.22705078 C116.44201923 216.22741239 116.44201923 216.22741239 114.43735981 216.2277813 C110.93661891 216.22822749 107.43601849 216.21674971 103.93531036 216.20256042 C100.63416457 216.19105644 97.33302376 216.19062805 94.03186035 216.18920898 C84.41705541 216.17877022 74.80227586 216.15084771 65.1875 216.125 C32.9196875 216.063125 32.9196875 216.063125 0 216 C0 144.72 0 73.44 0 0 Z M50 38 C50 54.5 50 71 50 88 C57.46166043 88.06321457 64.92232978 88.1232827 72.38402557 88.15525055 C75.86005822 88.17097863 79.33586517 88.19193313 82.81176758 88.22631836 C86.81593798 88.26567374 90.81987588 88.27980412 94.82421875 88.29296875 C96.65940315 88.31619453 96.65940315 88.31619453 98.53166199 88.33988953 C110.39107846 88.3421664 122.65825892 87.13466633 131.5234375 78.51953125 C136.65123098 72.75446863 137.46467224 67.48649258 137.30859375 60.00390625 C136.69263579 54.00806233 134.23058533 49.89860649 129.9375 45.75 C122.33349533 39.73562562 112.37783304 37.86614199 102.90283203 37.88647461 C101.72206085 37.88655014 100.54128967 37.88662567 99.32473755 37.88670349 C97.43535965 37.89444542 97.43535965 37.89444542 95.5078125 37.90234375 C93.55619705 37.90446617 93.55619705 37.90446617 91.56515503 37.90663147 C88.12270147 37.91043156 84.68029075 37.92024017 81.237854 37.93133545 C77.71847117 37.94160375 74.19908114 37.94619562 70.6796875 37.95117188 C63.78642061 37.96133294 56.89327107 37.98091094 50 38 Z M50 125 C50 142.49 50 159.98 50 178 C61.74411942 178.08748414 61.74411942 178.08748414 73.48828125 178.14648438 C78.28932844 178.16430924 83.09020147 178.18522692 87.89111328 178.22631836 C91.7685421 178.25929198 95.64578375 178.27693161 99.52334213 178.28463173 C100.99107681 178.29010799 102.45880309 178.30079806 103.92645645 178.31719017 C117.07343829 178.45797692 131.55161124 178.23120653 141.51953125 168.51953125 C146.11728412 163.36527804 147.8893538 157.86006413 148 151 C147.12151447 142.77291331 143.66086602 136.62655772 137.23828125 131.38671875 C125.33210045 124.01028911 110.03130221 124.84800787 96.58203125 124.90234375 C95.23011834 124.90421402 93.87820473 124.90563504 92.52629089 124.90663147 C89.00664321 124.91040873 85.48703828 124.92019674 81.96740723 124.93133545 C78.36043893 124.94165392 74.75346336 124.94620642 71.14648438 124.95117188 C64.09761878 124.96129083 57.04886982 124.98087434 50 125 Z " fill="#000000" transform="translate(2388,1518)"/>
<path d="M0 0 C20.274375 -0.061875 40.54875 -0.12375 61.4375 -0.1875 C67.80861084 -0.21481201 74.17972168 -0.24212402 80.74389648 -0.27026367 C88.60168457 -0.28381348 88.60168457 -0.28381348 92.29530334 -0.28633118 C94.84207233 -0.29089895 97.38883536 -0.30136802 99.93556213 -0.31672668 C126.0624967 -0.46623776 153.83862664 0.54646518 173.81640625 19.7890625 C174.53699219 20.51867188 175.25757812 21.24828125 176 22 C176.58652344 22.56460937 177.17304688 23.12921875 177.77734375 23.7109375 C187.79639886 34.16338685 188.46131668 47.82898334 188.2734375 61.421875 C187.81082674 75.09866426 181.80443584 87.10135597 171.84375 96.49609375 C168.76804627 99.00487751 165.45290624 101.05381648 162 103 C162.82242188 103.4125 163.64484375 103.825 164.4921875 104.25 C180.57999712 112.57256202 191.14023897 122.39782722 197 140 C201.22844581 155.70250969 199.40774756 172.01033354 191.65625 186.31640625 C182.20783296 201.62551593 165.94024499 208.7358075 149.09375 213.140625 C138.86440412 215.41512933 128.87089151 216.29033662 118.40698242 216.22705078 C116.44201923 216.22741239 116.44201923 216.22741239 114.43735981 216.2277813 C110.93661891 216.22822749 107.43601849 216.21674971 103.93531036 216.20256042 C100.63416457 216.19105644 97.33302376 216.19062805 94.03186035 216.18920898 C84.41705541 216.17877022 74.80227586 216.15084771 65.1875 216.125 C32.9196875 216.063125 32.9196875 216.063125 0 216 C0 144.72 0 73.44 0 0 Z M50 38 C50 54.5 50 71 50 88 C57.46166043 88.06321457 64.92232978 88.1232827 72.38402557 88.15525055 C75.86005822 88.17097863 79.33586517 88.19193313 82.81176758 88.22631836 C86.81593798 88.26567374 90.81987588 88.27980412 94.82421875 88.29296875 C96.65940315 88.31619453 96.65940315 88.31619453 98.53166199 88.33988953 C110.39107846 88.3421664 122.65825892 87.13466633 131.5234375 78.51953125 C136.65123098 72.75446863 137.46467224 67.48649258 137.30859375 60.00390625 C136.69263579 54.00806233 134.23058533 49.89860649 129.9375 45.75 C122.33349533 39.73562562 112.37783304 37.86614199 102.90283203 37.88647461 C101.72206085 37.88655014 100.54128967 37.88662567 99.32473755 37.88670349 C97.43535965 37.89444542 97.43535965 37.89444542 95.5078125 37.90234375 C93.55619705 37.90446617 93.55619705 37.90446617 91.56515503 37.90663147 C88.12270147 37.91043156 84.68029075 37.92024017 81.237854 37.93133545 C77.71847117 37.94160375 74.19908114 37.94619562 70.6796875 37.95117188 C63.78642061 37.96133294 56.89327107 37.98091094 50 38 Z M50 125 C50 142.49 50 159.98 50 178 C61.74411942 178.08748414 61.74411942 178.08748414 73.48828125 178.14648438 C78.28932844 178.16430924 83.09020147 178.18522692 87.89111328 178.22631836 C91.7685421 178.25929198 95.64578375 178.27693161 99.52334213 178.28463173 C100.99107681 178.29010799 102.45880309 178.30079806 103.92645645 178.31719017 C117.07343829 178.45797692 131.55161124 178.23120653 141.51953125 168.51953125 C146.11728412 163.36527804 147.8893538 157.86006413 148 151 C147.12151447 142.77291331 143.66086602 136.62655772 137.23828125 131.38671875 C125.33210045 124.01028911 110.03130221 124.84800787 96.58203125 124.90234375 C95.23011834 124.90421402 93.87820473 124.90563504 92.52629089 124.90663147 C89.00664321 124.91040873 85.48703828 124.92019674 81.96740723 124.93133545 C78.36043893 124.94165392 74.75346336 124.94620642 71.14648438 124.95117188 C64.09761878 124.96129083 57.04886982 124.98087434 50 125 Z " fill="#000000" transform="translate(2388,1148)"/>
<path d="M0 0 C17.9025 -0.0825 35.805 -0.165 54.25 -0.25 C59.86290039 -0.28641602 65.47580078 -0.32283203 71.25878906 -0.36035156 C78.21435547 -0.37841797 78.21435547 -0.37841797 81.49017334 -0.3817749 C83.73516022 -0.38784074 85.98013566 -0.40174607 88.22503662 -0.42230225 C107.6395805 -0.59089429 126.16296549 0.73010218 144 9 C145.07507812 9.49113281 146.15015625 9.98226563 147.2578125 10.48828125 C164.91787126 19.23481153 177.65249212 34.52345346 184.0703125 53.09765625 C190.19846743 74.72468844 188.07007697 97.97579794 177.5078125 117.80078125 C170.61712188 129.45560964 159.06676941 141.6926896 145.62109375 145.7109375 C144.81865234 145.85402344 144.81865234 145.85402344 144 146 C147.07169683 151.60659226 150.55170439 156.78968828 154.25 162 C155.50425514 163.77970208 156.75814697 165.55966026 158.01171875 167.33984375 C158.66446777 168.26522949 159.3172168 169.19061523 159.98974609 170.14404297 C168.56978821 182.33366316 177.05641159 194.59053555 185.5 206.875 C186.05824463 207.68396729 186.61648926 208.49293457 187.19165039 209.32641602 C187.9475647 210.4294104 187.9475647 210.4294104 188.71875 211.5546875 C189.16154297 212.19905762 189.60433594 212.84342773 190.06054688 213.50732422 C191 215 191 215 191 216 C183.31451251 216.27966199 175.63034186 216.4718378 167.94091797 216.60424805 C165.32746357 216.65945731 162.71434729 216.73444573 160.10205078 216.82983398 C156.33801937 216.96380313 152.5784859 217.02575476 148.8125 217.07421875 C147.06984863 217.15937996 147.06984863 217.15937996 145.29199219 217.2462616 C140.28955049 217.25003815 137.24887475 217.19827995 133.53862 213.63833618 C131.48600511 210.83910181 129.72179062 208.01143127 128 205 C126.95814802 203.469447 125.90481821 201.94653153 124.83203125 200.4375 C123.82387641 198.95945363 122.8173964 197.48026365 121.8125 196 C120.69143388 194.35544992 119.57033926 192.71091926 118.44921875 191.06640625 C117.88251465 190.23383301 117.31581055 189.40125977 116.73193359 188.54345703 C113.86820316 184.33788279 110.9968053 180.13756246 108.125 175.9375 C107.61428955 175.18919922 107.1035791 174.44089844 106.57739258 173.66992188 C105.5711891 172.19769932 104.54423225 170.73945233 103.49731445 169.29589844 C102 167 102 167 100.86791992 164.25878906 C99.24523444 160.87445968 98.07785034 159.20027921 95 157 C87.59379482 155.1595426 79.61753467 155.74663711 72.0625 155.875 C64.781875 155.91625 57.50125 155.9575 50 156 C50 175.8 50 195.6 50 216 C33.5 216 17 216 0 216 C0 144.72 0 73.44 0 0 Z M50 41 C50 65.75 50 90.5 50 116 C56.414375 116.04125 62.82875 116.0825 69.4375 116.125 C72.41608032 116.15231201 72.41608032 116.15231201 75.45483398 116.18017578 C103.40813179 116.4941167 103.40813179 116.4941167 127.09375 103.21875 C134.03683633 95.1374528 136.39422647 85.07998567 135.80859375 74.5625 C134.64899883 65.53646386 131.94283673 57.26383069 125 51 C113.01977683 42.2657553 100.35688755 40.82659664 85.9375 40.90234375 C85.02162109 40.90335083 84.10574219 40.90435791 83.16210938 40.90539551 C79.77472666 40.91058658 76.38736193 40.92454751 73 40.9375 C65.41 40.958125 57.82 40.97875 50 41 Z " fill="#000000" transform="translate(2624,1888)"/>
<path d="M0 0 C17.9025 -0.0825 35.805 -0.165 54.25 -0.25 C59.86290039 -0.28641602 65.47580078 -0.32283203 71.25878906 -0.36035156 C78.21435547 -0.37841797 78.21435547 -0.37841797 81.49017334 -0.3817749 C83.73516022 -0.38784074 85.98013566 -0.40174607 88.22503662 -0.42230225 C107.6395805 -0.59089429 126.16296549 0.73010218 144 9 C145.07507812 9.49113281 146.15015625 9.98226563 147.2578125 10.48828125 C164.91787126 19.23481153 177.65249212 34.52345346 184.0703125 53.09765625 C190.19846743 74.72468844 188.07007697 97.97579794 177.5078125 117.80078125 C170.61712188 129.45560964 159.06676941 141.6926896 145.62109375 145.7109375 C144.81865234 145.85402344 144.81865234 145.85402344 144 146 C147.07169683 151.60659226 150.55170439 156.78968828 154.25 162 C155.50425514 163.77970208 156.75814697 165.55966026 158.01171875 167.33984375 C158.66446777 168.26522949 159.3172168 169.19061523 159.98974609 170.14404297 C168.56978821 182.33366316 177.05641159 194.59053555 185.5 206.875 C186.05824463 207.68396729 186.61648926 208.49293457 187.19165039 209.32641602 C187.9475647 210.4294104 187.9475647 210.4294104 188.71875 211.5546875 C189.16154297 212.19905762 189.60433594 212.84342773 190.06054688 213.50732422 C191 215 191 215 191 216 C183.31451251 216.27966199 175.63034186 216.4718378 167.94091797 216.60424805 C165.32746357 216.65945731 162.71434729 216.73444573 160.10205078 216.82983398 C156.33801937 216.96380313 152.5784859 217.02575476 148.8125 217.07421875 C147.06984863 217.15937996 147.06984863 217.15937996 145.29199219 217.2462616 C140.28955049 217.25003815 137.24887475 217.19827995 133.53862 213.63833618 C131.48600511 210.83910181 129.72179062 208.01143127 128 205 C126.95814802 203.469447 125.90481821 201.94653153 124.83203125 200.4375 C123.82387641 198.95945363 122.8173964 197.48026365 121.8125 196 C120.69143388 194.35544992 119.57033926 192.71091926 118.44921875 191.06640625 C117.88251465 190.23383301 117.31581055 189.40125977 116.73193359 188.54345703 C113.86820316 184.33788279 110.9968053 180.13756246 108.125 175.9375 C107.61428955 175.18919922 107.1035791 174.44089844 106.57739258 173.66992188 C105.5711891 172.19769932 104.54423225 170.73945233 103.49731445 169.29589844 C102 167 102 167 100.86791992 164.25878906 C99.24523444 160.87445968 98.07785034 159.20027921 95 157 C87.59379482 155.1595426 79.61753467 155.74663711 72.0625 155.875 C64.781875 155.91625 57.50125 155.9575 50 156 C50 175.8 50 195.6 50 216 C33.5 216 17 216 0 216 C0 144.72 0 73.44 0 0 Z M50 41 C50 65.75 50 90.5 50 116 C56.414375 116.04125 62.82875 116.0825 69.4375 116.125 C72.41608032 116.15231201 72.41608032 116.15231201 75.45483398 116.18017578 C103.40813179 116.4941167 103.40813179 116.4941167 127.09375 103.21875 C134.03683633 95.1374528 136.39422647 85.07998567 135.80859375 74.5625 C134.64899883 65.53646386 131.94283673 57.26383069 125 51 C113.01977683 42.2657553 100.35688755 40.82659664 85.9375 40.90234375 C85.02162109 40.90335083 84.10574219 40.90435791 83.16210938 40.90539551 C79.77472666 40.91058658 76.38736193 40.92454751 73 40.9375 C65.41 40.958125 57.82 40.97875 50 41 Z " fill="#000000" transform="translate(2624,1148)"/>
<path d="M0 0 C16.5 0 33 0 50 0 C50.33 32.34 50.66 64.68 51 98 C60.44229662 88.68318409 60.44229662 88.68318409 69.1953125 79.0234375 C71.97854155 75.90284736 74.97833188 73.00122246 77.95361328 70.06591797 C80.58056446 67.46062493 83.10008053 64.81529015 85.5 62 C88.7830078 58.14877931 92.35404512 54.6171114 95.953125 51.06640625 C98.58023558 48.46094768 101.09993084 45.81546575 103.5 43 C106.7830078 39.14877931 110.35404512 35.6171114 113.953125 32.06640625 C116.58023558 29.46094768 119.09993084 26.81546575 121.5 24 C124.34122585 20.66702352 127.38417516 17.573875 130.5 14.5 C134.88488123 10.16343702 139.00720267 5.69593145 143 1 C144 0 144 0 146.32215881 -0.12025452 C147.35030197 -0.11803391 148.37844513 -0.11581329 149.43774414 -0.11352539 C150.59887222 -0.11344986 151.76000031 -0.11337433 152.95631409 -0.11329651 C154.85159096 -0.10555458 154.85159096 -0.10555458 156.78515625 -0.09765625 C158.71408974 -0.09553383 158.71408974 -0.09553383 160.68199158 -0.09336853 C164.10643443 -0.08954418 167.53083509 -0.07971462 170.95526123 -0.06866455 C174.44738189 -0.05844864 177.93950934 -0.05387053 181.43164062 -0.04882812 C188.28777778 -0.03809227 195.14388687 -0.02101684 202 0 C198.84427828 3.71255157 195.69083348 7.4097461 192.3359375 10.9453125 C191.6951123 11.62287598 191.05428711 12.30043945 190.39404297 12.99853516 C189.72775879 13.70026855 189.06147461 14.40200195 188.375 15.125 C183.51392714 20.26658359 178.66491713 25.41700623 173.875 30.625 C169.60313848 35.26870666 165.30897243 39.8907017 161 44.5 C156.65119826 49.15256524 152.31486849 53.8159449 148 58.5 C143.10218907 63.81687496 138.17407365 69.10479629 133.23730469 74.38549805 C128.71447953 79.22643278 124.21496451 84.08838692 119.73046875 88.96484375 C117.84898116 91.00879963 115.96466696 93.03533304 114 95 C114.34537131 98.28419792 115.70608861 100.18071397 117.80859375 102.65234375 C118.38569092 103.33965576 118.96278809 104.02696777 119.55737305 104.73510742 C120.17781494 105.46189697 120.79825684 106.18868652 121.4375 106.9375 C122.72559052 108.47259025 124.01203836 110.0090603 125.296875 111.546875 C126.24723633 112.68286133 126.24723633 112.68286133 127.21679688 113.84179688 C130.45083828 117.75594338 133.50931216 121.79724039 136.5859375 125.8359375 C143.09405557 134.36599517 149.77691952 142.75202535 156.5625 151.0625 C161.32849615 156.90079293 165.97616561 162.81179169 170.55078125 168.80078125 C177.07381026 177.33978059 183.76693645 185.73932882 190.5625 194.0625 C194.70648737 199.14147144 198.80521751 204.24976644 202.8125 209.4375 C203.23926025 209.98736572 203.66602051 210.53723145 204.10571289 211.10375977 C207 214.877201 207 214.877201 207 216 C199.3157735 216.20925061 191.63184492 216.36880294 183.94541168 216.46630955 C180.37533908 216.51313042 176.80722597 216.57653707 173.23828125 216.67895508 C169.78864057 216.77732092 166.34087394 216.83067107 162.88993835 216.85389519 C160.94410262 216.87842899 158.99901363 216.94860303 157.05432129 217.01966858 C148.34154455 217.02460158 148.34154455 217.02460158 144.45857239 214.05899048 C142.42717443 211.79782426 140.69650363 209.51843234 139 207 C138.07542207 205.83135189 137.14380344 204.66816243 136.19921875 203.515625 C135.35965211 202.42887713 134.52242609 201.34031716 133.6875 200.25 C129.55840625 194.92466748 125.29518198 189.7422518 120.91918945 184.61865234 C117.50978449 180.62133455 114.20621866 176.55314231 110.94140625 172.4375 C108.91945301 169.89887058 106.87027731 167.3846667 104.8125 164.875 C86.75570999 142.84383853 86.75570999 142.84383853 80 134 C76.76951252 135.4199255 74.61757512 137.13619387 72.13671875 139.6328125 C71.05293945 140.71949219 71.05293945 140.71949219 69.94726562 141.828125 C69.20154297 142.58609375 68.45582031 143.3440625 67.6875 144.125 C66.95337891 144.85976562 66.21925781 145.59453125 65.46289062 146.3515625 C61.25550644 150.59254603 57.21878333 154.93488819 53.32348633 159.46435547 C52.57506879 160.33274623 51.81062671 161.18937329 51 162 C50.87700834 163.68709347 50.82214742 165.37920903 50.79467773 167.07055664 C50.7647599 168.69212425 50.7647599 168.69212425 50.73423767 170.34645081 C50.70916893 172.110485 50.70916893 172.110485 50.68359375 173.91015625 C50.66281265 175.10732773 50.64203156 176.30449921 50.62062073 177.53794861 C50.55499721 181.37940487 50.49618097 185.22093201 50.4375 189.0625 C50.39432695 191.65951267 50.35071307 194.25651806 50.30664062 196.85351562 C50.19846961 203.23560536 50.0994912 209.61774533 50 216 C33.5 216 17 216 0 216 C0 144.72 0 73.44 0 0 Z " fill="#000000" transform="translate(3177,1888)"/>
<path d="M0 0 C16.5 0 33 0 50 0 C50.33 32.34 50.66 64.68 51 98 C60.44229662 88.68318409 60.44229662 88.68318409 69.1953125 79.0234375 C71.97854155 75.90284736 74.97833188 73.00122246 77.95361328 70.06591797 C80.58056446 67.46062493 83.10008053 64.81529015 85.5 62 C88.7830078 58.14877931 92.35404512 54.6171114 95.953125 51.06640625 C98.58023558 48.46094768 101.09993084 45.81546575 103.5 43 C106.7830078 39.14877931 110.35404512 35.6171114 113.953125 32.06640625 C116.58023558 29.46094768 119.09993084 26.81546575 121.5 24 C124.34122585 20.66702352 127.38417516 17.573875 130.5 14.5 C134.88488123 10.16343702 139.00720267 5.69593145 143 1 C144 0 144 0 146.32215881 -0.12025452 C147.35030197 -0.11803391 148.37844513 -0.11581329 149.43774414 -0.11352539 C150.59887222 -0.11344986 151.76000031 -0.11337433 152.95631409 -0.11329651 C154.85159096 -0.10555458 154.85159096 -0.10555458 156.78515625 -0.09765625 C158.71408974 -0.09553383 158.71408974 -0.09553383 160.68199158 -0.09336853 C164.10643443 -0.08954418 167.53083509 -0.07971462 170.95526123 -0.06866455 C174.44738189 -0.05844864 177.93950934 -0.05387053 181.43164062 -0.04882812 C188.28777778 -0.03809227 195.14388687 -0.02101684 202 0 C198.84427828 3.71255157 195.69083348 7.4097461 192.3359375 10.9453125 C191.6951123 11.62287598 191.05428711 12.30043945 190.39404297 12.99853516 C189.72775879 13.70026855 189.06147461 14.40200195 188.375 15.125 C183.51392714 20.26658359 178.66491713 25.41700623 173.875 30.625 C169.60313848 35.26870666 165.30897243 39.8907017 161 44.5 C156.65119826 49.15256524 152.31486849 53.8159449 148 58.5 C143.10218907 63.81687496 138.17407365 69.10479629 133.23730469 74.38549805 C128.71447953 79.22643278 124.21496451 84.08838692 119.73046875 88.96484375 C117.84898116 91.00879963 115.96466696 93.03533304 114 95 C114.34537131 98.28419792 115.70608861 100.18071397 117.80859375 102.65234375 C118.38569092 103.33965576 118.96278809 104.02696777 119.55737305 104.73510742 C120.17781494 105.46189697 120.79825684 106.18868652 121.4375 106.9375 C122.72559052 108.47259025 124.01203836 110.0090603 125.296875 111.546875 C126.24723633 112.68286133 126.24723633 112.68286133 127.21679688 113.84179688 C130.45083828 117.75594338 133.50931216 121.79724039 136.5859375 125.8359375 C143.09405557 134.36599517 149.77691952 142.75202535 156.5625 151.0625 C161.32849615 156.90079293 165.97616561 162.81179169 170.55078125 168.80078125 C177.07381026 177.33978059 183.76693645 185.73932882 190.5625 194.0625 C194.70648737 199.14147144 198.80521751 204.24976644 202.8125 209.4375 C203.23926025 209.98736572 203.66602051 210.53723145 204.10571289 211.10375977 C207 214.877201 207 214.877201 207 216 C199.3157735 216.20925061 191.63184492 216.36880294 183.94541168 216.46630955 C180.37533908 216.51313042 176.80722597 216.57653707 173.23828125 216.67895508 C169.78864057 216.77732092 166.34087394 216.83067107 162.88993835 216.85389519 C160.94410262 216.87842899 158.99901363 216.94860303 157.05432129 217.01966858 C148.34154455 217.02460158 148.34154455 217.02460158 144.45857239 214.05899048 C142.42717443 211.79782426 140.69650363 209.51843234 139 207 C138.07542207 205.83135189 137.14380344 204.66816243 136.19921875 203.515625 C135.35965211 202.42887713 134.52242609 201.34031716 133.6875 200.25 C129.55840625 194.92466748 125.29518198 189.7422518 120.91918945 184.61865234 C117.50978449 180.62133455 114.20621866 176.55314231 110.94140625 172.4375 C108.91945301 169.89887058 106.87027731 167.3846667 104.8125 164.875 C86.75570999 142.84383853 86.75570999 142.84383853 80 134 C76.76951252 135.4199255 74.61757512 137.13619387 72.13671875 139.6328125 C71.05293945 140.71949219 71.05293945 140.71949219 69.94726562 141.828125 C69.20154297 142.58609375 68.45582031 143.3440625 67.6875 144.125 C66.95337891 144.85976562 66.21925781 145.59453125 65.46289062 146.3515625 C61.25550644 150.59254603 57.21878333 154.93488819 53.32348633 159.46435547 C52.57506879 160.33274623 51.81062671 161.18937329 51 162 C50.87700834 163.68709347 50.82214742 165.37920903 50.79467773 167.07055664 C50.7647599 168.69212425 50.7647599 168.69212425 50.73423767 170.34645081 C50.70916893 172.110485 50.70916893 172.110485 50.68359375 173.91015625 C50.66281265 175.10732773 50.64203156 176.30449921 50.62062073 177.53794861 C50.55499721 181.37940487 50.49618097 185.22093201 50.4375 189.0625 C50.39432695 191.65951267 50.35071307 194.25651806 50.30664062 196.85351562 C50.19846961 203.23560536 50.0994912 209.61774533 50 216 C33.5 216 17 216 0 216 C0 144.72 0 73.44 0 0 Z " fill="#000000" transform="translate(3177,1148)"/>
<path d="M0 0 C0.82208954 0.00215515 1.64417908 0.0043103 2.49118042 0.00653076 C14.52093663 0.0572058 26.21778278 0.34389616 37.9375 3.3125 C38.74348633 3.51117676 39.54947266 3.70985352 40.37988281 3.91455078 C52.36583731 6.96008737 63.10511105 11.38721153 73.9375 17.3125 C74.5975 17.6425 75.2575 17.9725 75.9375 18.3125 C75.32032894 23.41026321 73.75589991 27.65200998 71.77734375 32.3359375 C71.31334923 33.45520126 71.31334923 33.45520126 70.83998108 34.59707642 C69.85756655 36.96306311 68.86643819 39.32528239 67.875 41.6875 C67.20449789 43.29793563 66.53456986 44.9086104 65.86523438 46.51953125 C64.22928722 50.45331959 62.58551898 54.38375461 60.9375 58.3125 C57.90827138 57.11906799 54.92224131 55.87760105 51.96875 54.5078125 C29.73244889 44.31668609 3.67626844 36.91035452 -20.75 44 C-23.56698147 45.06051081 -23.56698147 45.06051081 -26.0625 46.3125 C-26.85398437 46.68632813 -27.64546875 47.06015625 -28.4609375 47.4453125 C-33.25910864 50.06092204 -36.27628976 53.10524303 -38.0625 58.3125 C-39.30933743 63.29984974 -39.69608212 67.74374565 -37.6875 72.5625 C-33.22431059 79.97139442 -25.72615137 82.62573145 -17.8828125 85.2109375 C-17.09588013 85.47144897 -16.30894775 85.73196045 -15.49816895 86.00036621 C-6.96723016 88.760214 1.70317271 90.81298719 10.4375 92.8125 C19.94184215 94.98828907 29.32926832 97.29164976 38.59375 100.3515625 C39.31373169 100.58774292 40.03371338 100.82392334 40.7755127 101.06726074 C58.83035611 107.21186578 73.1554206 117.44919665 81.859375 134.625 C87.16642404 147.85416572 87.34880571 166.18110447 82.24609375 179.51171875 C81.81425781 180.43597656 81.38242188 181.36023437 80.9375 182.3125 C80.47472656 183.30894531 80.01195313 184.30539063 79.53515625 185.33203125 C70.2058698 203.10101448 53.62078594 213.66297685 34.93066406 219.71484375 C24.88023819 222.72849423 14.4909644 224.43676349 4.00390625 224.55078125 C2.88415909 224.56547203 2.88415909 224.56547203 1.74179077 224.58045959 C-32.06206172 224.93209528 -66.9683655 220.9330151 -95.0625 200.3125 C-92.52773288 191.97613593 -88.97550395 184.16335526 -85.375 176.25 C-84.76196644 174.8940625 -84.14933305 173.537944 -83.53710938 172.18164062 C-82.05017883 168.88982842 -80.55785452 165.60049559 -79.0625 162.3125 C-74.32232315 162.3125 -71.89142436 163.99295345 -68 166.375 C-48.77360031 177.59760944 -28.27728392 182.60557126 -6.125 182.75 C-4.91666504 182.76023193 -3.70833008 182.77046387 -2.46337891 182.78100586 C8.40651119 182.674204 19.26245322 181.39502612 27.9375 174.3125 C31.34947815 170.72094405 33.88764165 167.29846099 33.97265625 162.20703125 C33.60904297 156.91246712 32.59798847 153.33010929 28.9375 149.3125 C15.8985237 139.18261802 -2.64637892 136.52992545 -18.36328125 132.83837891 C-42.59034477 127.12120128 -69.96409599 119.71329748 -84.0625 97.3125 C-91.45403794 81.37104877 -93.20183288 62.17132616 -87.390625 45.3515625 C-79.266915 26.76260256 -65.64870495 14.54408214 -46.99902344 7.03515625 C-41.49070588 4.97960658 -35.81947635 3.48925105 -30.0625 2.3125 C-29.23999756 2.13517334 -28.41749512 1.95784668 -27.57006836 1.77514648 C-18.38806993 -0.00117297 -9.31444668 -0.04375122 0 0 Z " fill="#000000" transform="translate(3479.0625,1883.6875)"/>
<path d="M0 0 C1.86785156 0.51046875 1.86785156 0.51046875 3.7734375 1.03125 C22.94557735 6.88171742 42.67218715 17.71896446 55 34 C54.97562934 36.63690498 54.28851037 37.64124362 52.65234375 39.67578125 C52.08644531 40.21589844 51.52054688 40.75601562 50.9375 41.3125 C50.30070312 41.92222656 49.66390625 42.53195312 49.0078125 43.16015625 C46.48298974 45.47375842 43.91566982 47.73080088 41.3203125 49.96484375 C37.8605542 52.9994129 34.4916488 56.13204655 31.12426758 59.26855469 C24.928083 65 24.928083 65 21 65 C19.91862813 63.63956442 18.83825798 62.27832543 17.76171875 60.9140625 C6.3916169 48.56073677 -10.71986456 41.69110311 -27.3125 40.6484375 C-47.49686044 39.97281037 -65.99500326 46.40226037 -81.09375 59.8671875 C-94.89335819 74.48222708 -99.48873222 93.76191707 -99.21484375 113.3203125 C-98.63872589 130.90443154 -91.19770753 148.64620963 -78.3125 160.8125 C-62.29585095 173.56238697 -43.32213337 178.56626991 -23 177 C-6.15704252 174.74601029 7.20660983 166.92632694 19 155 C19.60457031 154.39671875 20.20914063 153.7934375 20.83203125 153.171875 C21.21746094 152.78515625 21.60289062 152.3984375 22 152 C25.48654476 153.4841373 27.64191072 155.46214052 30.25 158.1875 C33.6263401 161.64069988 37.07511385 164.88430154 40.73828125 168.02734375 C43.70475174 170.61467985 46.60217747 173.27376342 49.5 175.9375 C50.04116455 176.43491699 50.5823291 176.93233398 51.13989258 177.44482422 C52.42725155 178.6291696 53.71372212 179.81448056 55 181 C53.42772916 189.77365949 43.81612647 196.15480166 37 201 C8.94319679 219.95287407 -26.40835423 225.58752851 -59.66625977 219.87304688 C-63.49717127 219.07681056 -67.24918177 218.11170061 -71 217 C-72.09320557 216.68651611 -72.09320557 216.68651611 -73.20849609 216.36669922 C-101.71430646 207.95669771 -124.73555657 189.15365666 -138.984375 163.20751953 C-147.60977763 146.94209582 -151.18953868 129.95051732 -151.24023438 111.62402344 C-151.24984927 109.532784 -151.28089292 107.44256843 -151.3125 105.3515625 C-151.51075689 80.14541254 -142.88261449 54.91508458 -126 36 C-125.32582031 35.18402344 -124.65164062 34.36804687 -123.95703125 33.52734375 C-95.18967766 -0.37516586 -41.95789425 -11.53609509 0 0 Z " fill="#000000" transform="translate(3089,1887)"/>
<path d="M0 0 C1.86785156 0.51046875 1.86785156 0.51046875 3.7734375 1.03125 C22.94557735 6.88171742 42.67218715 17.71896446 55 34 C54.97562934 36.63690498 54.28851037 37.64124362 52.65234375 39.67578125 C52.08644531 40.21589844 51.52054688 40.75601562 50.9375 41.3125 C50.30070312 41.92222656 49.66390625 42.53195312 49.0078125 43.16015625 C46.48298974 45.47375842 43.91566982 47.73080088 41.3203125 49.96484375 C37.8605542 52.9994129 34.4916488 56.13204655 31.12426758 59.26855469 C24.928083 65 24.928083 65 21 65 C19.91862813 63.63956442 18.83825798 62.27832543 17.76171875 60.9140625 C6.3916169 48.56073677 -10.71986456 41.69110311 -27.3125 40.6484375 C-47.49686044 39.97281037 -65.99500326 46.40226037 -81.09375 59.8671875 C-94.89335819 74.48222708 -99.48873222 93.76191707 -99.21484375 113.3203125 C-98.63872589 130.90443154 -91.19770753 148.64620963 -78.3125 160.8125 C-62.29585095 173.56238697 -43.32213337 178.56626991 -23 177 C-6.15704252 174.74601029 7.20660983 166.92632694 19 155 C19.60457031 154.39671875 20.20914063 153.7934375 20.83203125 153.171875 C21.21746094 152.78515625 21.60289062 152.3984375 22 152 C25.48654476 153.4841373 27.64191072 155.46214052 30.25 158.1875 C33.6263401 161.64069988 37.07511385 164.88430154 40.73828125 168.02734375 C43.70475174 170.61467985 46.60217747 173.27376342 49.5 175.9375 C50.04116455 176.43491699 50.5823291 176.93233398 51.13989258 177.44482422 C52.42725155 178.6291696 53.71372212 179.81448056 55 181 C53.42772916 189.77365949 43.81612647 196.15480166 37 201 C8.94319679 219.95287407 -26.40835423 225.58752851 -59.66625977 219.87304688 C-63.49717127 219.07681056 -67.24918177 218.11170061 -71 217 C-72.09320557 216.68651611 -72.09320557 216.68651611 -73.20849609 216.36669922 C-101.71430646 207.95669771 -124.73555657 189.15365666 -138.984375 163.20751953 C-147.60977763 146.94209582 -151.18953868 129.95051732 -151.24023438 111.62402344 C-151.24984927 109.532784 -151.28089292 107.44256843 -151.3125 105.3515625 C-151.51075689 80.14541254 -142.88261449 54.91508458 -126 36 C-125.32582031 35.18402344 -124.65164062 34.36804687 -123.95703125 33.52734375 C-95.18967766 -0.37516586 -41.95789425 -11.53609509 0 0 Z " fill="#000000" transform="translate(3089,1147)"/>
<path d="M0 0 C49.08467931 -4.85332769 49.08467931 -4.85332769 58.99951172 2.39501953 C65.19241353 8.35030534 67.82039667 17.01984855 70.49609375 24.96826172 C72.56228122 30.8587546 75.91007174 35.91351293 79.28909302 41.12338257 C81.10083669 43.9415317 82.82586955 46.81261391 84.55859375 49.6796875 C85.27714498 50.86167554 85.995733 52.04364121 86.71435547 53.22558594 C90.55678771 59.56212547 94.36215677 65.92083613 98.15533447 72.28695679 C99.00295538 73.7086495 99.85185166 75.12958267 100.7020874 76.54971313 C101.88703736 78.5297117 103.06720113 80.51248424 104.24609375 82.49609375 C104.59736832 83.08129791 104.94864288 83.66650208 105.31056213 84.2694397 C107.18011591 87.42900896 108.73906882 90.55104151 110 94 C110.66 94 111.32 94 112 94 C112.25257568 93.30914307 112.50515137 92.61828613 112.76538086 91.90649414 C114.17068049 88.59819038 115.90855435 85.57037526 117.75390625 82.49609375 C118.12641006 81.869272 118.49891388 81.24245026 118.88270569 80.59663391 C120.10561717 78.54136671 121.33388517 76.48936208 122.5625 74.4375 C123.42318646 72.99456881 124.28369844 71.55153353 125.14404297 70.10839844 C132.63997221 57.5487409 140.22378215 45.04309692 147.83691406 32.55419922 C150.16663458 28.72924701 152.48589899 24.89799224 154.8046875 21.06640625 C155.98697118 19.11401256 157.1693514 17.16167735 158.35174561 15.20935059 C159.11265079 13.95237873 159.87311369 12.69513903 160.63311768 11.43762207 C161.68119406 9.70372136 162.73117291 7.97097103 163.78125 6.23828125 C164.38001953 5.24868408 164.97878906 4.25908691 165.59570312 3.23950195 C167 1 167 1 168 0 C169.56547048 -0.09326716 171.13512772 -0.11745582 172.70336914 -0.11352539 C173.70433121 -0.11344986 174.70529327 -0.11337433 175.73658752 -0.11329651 C176.8251152 -0.10813522 177.91364288 -0.10297394 179.03515625 -0.09765625 C180.6977372 -0.09553383 180.6977372 -0.09553383 182.39390564 -0.09336853 C185.95013069 -0.08775033 189.50629383 -0.07519475 193.0625 -0.0625 C195.46679597 -0.05748734 197.87109292 -0.05292403 200.27539062 -0.04882812 C206.18361504 -0.03777499 212.0918031 -0.02101917 218 0 C216.44893456 3.99600138 214.61033675 7.56830138 212.4375 11.26953125 C212.09042999 11.8622583 211.74335999 12.45498535 211.38577271 13.06567383 C210.26097388 14.98354021 209.13077785 16.89815372 208 18.8125 C207.21464871 20.14736056 206.42932987 21.48224022 205.64404297 22.81713867 C201.53156954 29.79398239 197.36146062 36.72561738 193.01391602 43.55883789 C188.50280915 50.69718081 184.23634856 57.98283085 179.9375 65.25 C174.54833129 74.35850815 169.15098396 83.46021912 163.64067078 92.49612427 C162.25168562 94.77736646 160.87854263 97.06579457 159.51423645 99.36209106 C156.3368738 104.6810899 153.14286194 109.89936297 149.4782486 114.89849854 C134.60247967 135.24021643 132.47048395 152.50920234 133.30047607 177.29064941 C133.44938555 182.45455185 133.45802066 187.62060867 133.49188232 192.78630066 C133.5575076 200.53073983 133.79396639 208.25235884 134 216 C117.5 216 101 216 84 216 C84.12503906 210.76640625 84.25007813 205.5328125 84.37890625 200.140625 C84.42032933 196.75863304 84.4565135 193.37809774 84.47460938 189.99609375 C84.50360824 184.66520469 84.5485081 179.3389999 84.7097168 174.01025391 C85.41888165 149.62464764 82.84260418 133.55241674 68.0741272 113.82580566 C65.25700432 109.9877374 62.88405907 105.96271013 60.53515625 101.828125 C59.77894407 100.54294346 59.02055497 99.25903981 58.25976562 97.9765625 C57.90052002 97.3671582 57.54127441 96.75775391 57.17114258 96.12988281 C49.72516619 83.48005185 49.72516619 83.48005185 42 71 C36.70855396 62.67573858 31.72918846 54.16359267 26.71002197 45.67373657 C22.18912228 38.02736113 17.65110006 30.39333679 13.02734375 22.80859375 C12.6320195 22.15994354 12.23669525 21.51129333 11.82939148 20.84298706 C9.94707239 17.75720122 8.06003944 14.67439181 6.16772461 11.59472656 C5.50135986 10.50514648 4.83499512 9.41556641 4.1484375 8.29296875 C3.56239746 7.3393042 2.97635742 6.38563965 2.37255859 5.40307617 C1 3 1 3 0 0 Z " fill="#000000" transform="translate(2589,1518)"/>
<path d="M0 0 C144.87 0 289.74 0 439 0 C439 1.65 439 3.3 439 5 C295.78 5 152.56 5 5 5 C5 127.43 5 249.86 5 376 C-115.78 376 -236.56 376 -361 376 C-360.96115624 437.48511247 -360.96115624 437.48511247 -360.90991211 498.97021484 C-360.88436013 581.65477638 -361.4895677 664.30996785 -362 747 C-483.11 747 -604.22 747 -729 747 C-729 846 -729 945 -729 1047 C-730.65 1047 -732.3 1047 -734 1047 C-734 946.35 -734 845.7 -734 742 C-612.89 742 -491.78 742 -367 742 C-367 689.86 -367 637.72 -367 584 C-366.86318347 545.20762678 -366.70917966 506.41685216 -366.5 467.625 C-366.335 435.73875 -366.17 403.8525 -366 371 C-245.22 371 -124.44 371 0 371 C0 248.57 0 126.14 0 0 Z " fill="#000000" transform="translate(1836,1062)"/>
<path d="M0 0 C16.5 0 33 0 50 0 C50 71.28 50 142.56 50 216 C33.5 216 17 216 0 216 C0 144.72 0 73.44 0 0 Z " fill="#000000" transform="translate(2851,1888)"/>
<path d="M0 0 C16.5 0 33 0 50 0 C50 71.28 50 142.56 50 216 C33.5 216 17 216 0 216 C0 144.72 0 73.44 0 0 Z " fill="#000000" transform="translate(2851,1148)"/>
</svg>
